<mxfile host="app.diagrams.net" modified="2024-01-29T04:21:00.206Z" agent="Mozilla/5.0 (Windows NT 10.0; Win64; x64; rv:122.0) Gecko/20100101 Firefox/122.0" etag="0TGUcl9pylEhybZl6gR2" version="23.0.2" type="github">
  <diagram name="Page-1" id="7IsF7aob0J8eNSYA-nvZ">
    <mxGraphModel dx="939" dy="878" grid="0" gridSize="10" guides="1" tooltips="1" connect="1" arrows="1" fold="1" page="1" pageScale="1" pageWidth="850" pageHeight="1100" math="0" shadow="0">
      <root>
        <mxCell id="0" />
        <mxCell id="1" parent="0" />
        <mxCell id="L_woE7Q-P35ynk-ehdgz-3" style="edgeStyle=orthogonalEdgeStyle;rounded=0;orthogonalLoop=1;jettySize=auto;html=1;exitX=1;exitY=0.5;exitDx=0;exitDy=0;entryX=0;entryY=0.5;entryDx=0;entryDy=0;startArrow=classic;startFill=1;strokeWidth=2;" edge="1" parent="1" source="L_woE7Q-P35ynk-ehdgz-1" target="L_woE7Q-P35ynk-ehdgz-2">
          <mxGeometry relative="1" as="geometry" />
        </mxCell>
        <mxCell id="L_woE7Q-P35ynk-ehdgz-27" value="VPN" style="edgeLabel;html=1;align=center;verticalAlign=middle;resizable=0;points=[];fontSize=15;" vertex="1" connectable="0" parent="L_woE7Q-P35ynk-ehdgz-3">
          <mxGeometry x="0.075" y="2" relative="1" as="geometry">
            <mxPoint as="offset" />
          </mxGeometry>
        </mxCell>
        <mxCell id="L_woE7Q-P35ynk-ehdgz-1" value="GCP" style="rounded=1;whiteSpace=wrap;html=1;arcSize=5;verticalAlign=bottom;align=right;fontSize=14;" vertex="1" parent="1">
          <mxGeometry x="120" y="240" width="200" height="400" as="geometry" />
        </mxCell>
        <mxCell id="L_woE7Q-P35ynk-ehdgz-2" value="Huawei Cloud" style="rounded=1;whiteSpace=wrap;html=1;arcSize=5;verticalAlign=bottom;align=left;fontSize=14;" vertex="1" parent="1">
          <mxGeometry x="399" y="240" width="200" height="400" as="geometry" />
        </mxCell>
        <mxCell id="L_woE7Q-P35ynk-ehdgz-18" style="edgeStyle=orthogonalEdgeStyle;rounded=0;orthogonalLoop=1;jettySize=auto;html=1;exitX=0.5;exitY=1;exitDx=0;exitDy=0;entryX=0.5;entryY=0;entryDx=0;entryDy=0;fontSize=13;" edge="1" parent="1" source="L_woE7Q-P35ynk-ehdgz-4" target="L_woE7Q-P35ynk-ehdgz-6">
          <mxGeometry relative="1" as="geometry" />
        </mxCell>
        <mxCell id="L_woE7Q-P35ynk-ehdgz-4" value="Load Balancer" style="rounded=0;whiteSpace=wrap;html=1;fillColor=#dae8fc;strokeColor=#6c8ebf;fontSize=13;" vertex="1" parent="1">
          <mxGeometry x="160" y="300" width="120" height="40" as="geometry" />
        </mxCell>
        <mxCell id="L_woE7Q-P35ynk-ehdgz-23" style="edgeStyle=orthogonalEdgeStyle;rounded=0;orthogonalLoop=1;jettySize=auto;html=1;exitX=0.5;exitY=1;exitDx=0;exitDy=0;entryX=0.5;entryY=0;entryDx=0;entryDy=0;fontSize=13;" edge="1" parent="1" source="L_woE7Q-P35ynk-ehdgz-5" target="L_woE7Q-P35ynk-ehdgz-7">
          <mxGeometry relative="1" as="geometry" />
        </mxCell>
        <mxCell id="L_woE7Q-P35ynk-ehdgz-5" value="Load Balancer" style="rounded=0;whiteSpace=wrap;html=1;fillColor=#f8cecc;strokeColor=#b85450;fontSize=13;" vertex="1" parent="1">
          <mxGeometry x="439" y="300" width="120" height="40" as="geometry" />
        </mxCell>
        <mxCell id="L_woE7Q-P35ynk-ehdgz-20" style="edgeStyle=orthogonalEdgeStyle;rounded=0;orthogonalLoop=1;jettySize=auto;html=1;exitX=0.5;exitY=1;exitDx=0;exitDy=0;entryX=0.5;entryY=0;entryDx=0;entryDy=0;fontSize=13;" edge="1" parent="1" source="L_woE7Q-P35ynk-ehdgz-6" target="L_woE7Q-P35ynk-ehdgz-8">
          <mxGeometry relative="1" as="geometry" />
        </mxCell>
        <mxCell id="L_woE7Q-P35ynk-ehdgz-6" value="APIGW" style="rounded=0;whiteSpace=wrap;html=1;fillColor=#dae8fc;strokeColor=#6c8ebf;fontSize=13;" vertex="1" parent="1">
          <mxGeometry x="160" y="370" width="120" height="40" as="geometry" />
        </mxCell>
        <mxCell id="L_woE7Q-P35ynk-ehdgz-24" style="edgeStyle=orthogonalEdgeStyle;rounded=0;orthogonalLoop=1;jettySize=auto;html=1;exitX=0.5;exitY=1;exitDx=0;exitDy=0;entryX=0.5;entryY=0;entryDx=0;entryDy=0;fontSize=13;" edge="1" parent="1" source="L_woE7Q-P35ynk-ehdgz-7" target="L_woE7Q-P35ynk-ehdgz-10">
          <mxGeometry relative="1" as="geometry" />
        </mxCell>
        <mxCell id="L_woE7Q-P35ynk-ehdgz-7" value="APIGW" style="rounded=0;whiteSpace=wrap;html=1;fillColor=#f8cecc;strokeColor=#b85450;fontSize=13;" vertex="1" parent="1">
          <mxGeometry x="439" y="370" width="120" height="40" as="geometry" />
        </mxCell>
        <mxCell id="L_woE7Q-P35ynk-ehdgz-21" style="edgeStyle=orthogonalEdgeStyle;rounded=0;orthogonalLoop=1;jettySize=auto;html=1;exitX=0.5;exitY=1;exitDx=0;exitDy=0;entryX=0.5;entryY=0;entryDx=0;entryDy=0;fontSize=13;" edge="1" parent="1" source="L_woE7Q-P35ynk-ehdgz-8" target="L_woE7Q-P35ynk-ehdgz-11">
          <mxGeometry relative="1" as="geometry" />
        </mxCell>
        <mxCell id="L_woE7Q-P35ynk-ehdgz-22" style="edgeStyle=orthogonalEdgeStyle;rounded=0;orthogonalLoop=1;jettySize=auto;html=1;exitX=0.75;exitY=1;exitDx=0;exitDy=0;entryX=0.25;entryY=0;entryDx=0;entryDy=0;" edge="1" parent="1" source="L_woE7Q-P35ynk-ehdgz-8" target="L_woE7Q-P35ynk-ehdgz-12">
          <mxGeometry relative="1" as="geometry" />
        </mxCell>
        <mxCell id="L_woE7Q-P35ynk-ehdgz-8" value="Application" style="rounded=0;whiteSpace=wrap;html=1;fillColor=#dae8fc;strokeColor=#6c8ebf;fontSize=13;" vertex="1" parent="1">
          <mxGeometry x="160" y="440" width="120" height="40" as="geometry" />
        </mxCell>
        <mxCell id="L_woE7Q-P35ynk-ehdgz-25" style="edgeStyle=orthogonalEdgeStyle;rounded=0;orthogonalLoop=1;jettySize=auto;html=1;exitX=0.5;exitY=1;exitDx=0;exitDy=0;entryX=0.5;entryY=0;entryDx=0;entryDy=0;fontSize=13;" edge="1" parent="1" source="L_woE7Q-P35ynk-ehdgz-10" target="L_woE7Q-P35ynk-ehdgz-12">
          <mxGeometry relative="1" as="geometry" />
        </mxCell>
        <mxCell id="L_woE7Q-P35ynk-ehdgz-10" value="Application" style="rounded=0;whiteSpace=wrap;html=1;fillColor=#f8cecc;strokeColor=#b85450;fontSize=13;" vertex="1" parent="1">
          <mxGeometry x="439" y="440" width="120" height="40" as="geometry" />
        </mxCell>
        <mxCell id="L_woE7Q-P35ynk-ehdgz-11" value="DataBase" style="rounded=0;whiteSpace=wrap;html=1;fillColor=#dae8fc;strokeColor=#6c8ebf;fontSize=13;" vertex="1" parent="1">
          <mxGeometry x="160" y="560" width="120" height="40" as="geometry" />
        </mxCell>
        <mxCell id="L_woE7Q-P35ynk-ehdgz-12" value="DataBase" style="rounded=0;whiteSpace=wrap;html=1;fillColor=#f8cecc;strokeColor=#b85450;fontSize=13;" vertex="1" parent="1">
          <mxGeometry x="439" y="560" width="120" height="40" as="geometry" />
        </mxCell>
        <mxCell id="L_woE7Q-P35ynk-ehdgz-14" style="edgeStyle=orthogonalEdgeStyle;rounded=0;orthogonalLoop=1;jettySize=auto;html=1;entryX=0.5;entryY=0;entryDx=0;entryDy=0;" edge="1" parent="1" source="L_woE7Q-P35ynk-ehdgz-13" target="L_woE7Q-P35ynk-ehdgz-4">
          <mxGeometry relative="1" as="geometry" />
        </mxCell>
        <mxCell id="L_woE7Q-P35ynk-ehdgz-26" style="edgeStyle=orthogonalEdgeStyle;rounded=0;orthogonalLoop=1;jettySize=auto;html=1;dashed=1;strokeColor=#4D4D4D;entryX=0.5;entryY=0;entryDx=0;entryDy=0;" edge="1" parent="1" source="L_woE7Q-P35ynk-ehdgz-13" target="L_woE7Q-P35ynk-ehdgz-5">
          <mxGeometry relative="1" as="geometry">
            <Array as="points">
              <mxPoint x="220" y="210" />
              <mxPoint x="500" y="210" />
            </Array>
          </mxGeometry>
        </mxCell>
        <mxCell id="L_woE7Q-P35ynk-ehdgz-13" value="" style="image;aspect=fixed;html=1;points=[];align=center;fontSize=12;image=img/lib/azure2/networking/DNS_Zones.svg;" vertex="1" parent="1">
          <mxGeometry x="188" y="130" width="64" height="64" as="geometry" />
        </mxCell>
      </root>
    </mxGraphModel>
  </diagram>
</mxfile>
